<?xml version="1.0" ?><svg id="icons" viewBox="0 0 340 340" xmlns="http://www.w3.org/2000/svg"><title/><path d="M282.031,280.771l-15.453-1.34a21.946,21.946,0,0,0-23.139,16.757l-4.73,20.132a3.5,3.5,0,1,0,6.815,1.6l4.729-20.133a14.9,14.9,0,0,1,15.72-11.384l15.453,1.341a3.5,3.5,0,1,0,.605-6.975Z"/><path d="M323.312,68.81,294.07,62.96a23.4,23.4,0,0,0-20.231,5.586l-15.028,13.62-1.979-13.325,11.281-9.3a23.442,23.442,0,0,0,8.412-16.132l1.77-22.132a3.5,3.5,0,1,0-6.978-.558l-1.771,22.132a16.406,16.406,0,0,1-5.886,11.29L228.184,83.387a35.513,35.513,0,0,0-31.94-9.7,32.54,32.54,0,0,0-3-2.485c-.511-1.631-1.009-3.4-1.48-5.277a76.911,76.911,0,0,1-2.279-18.766V21a3.5,3.5,0,1,0-7,0V47.159a84.166,84.166,0,0,0,2.266,19.519,32.217,32.217,0,0,0-15.707-1.6c2.593-11.846,3.146-26.742,1.639-44.382a3.5,3.5,0,0,0-6.975.6c1.984,23.22-.138,37.656-2.39,45.881A33.19,33.19,0,0,0,146.8,78.612,31.081,31.081,0,0,0,110.647,95.8c-6.984-.123-13.036,1.322-18.042,4.327l-16.4-14.068a22.855,22.855,0,0,1-7.724-13.985L64.141,42.87A3.5,3.5,0,0,0,57.217,43.9L61.56,73.106A29.855,29.855,0,0,0,71.65,91.374l2.1,1.8-.572,14.638-4.126-3.567A29.844,29.844,0,0,0,41.9,97.963l-21.11,5.572a3.5,3.5,0,0,0,1.787,6.768l21.11-5.573a22.854,22.854,0,0,1,20.783,4.809l14.1,12.188c-1.776,11.354,3.532,20.4,6.944,24.868a25.957,25.957,0,0,0-4.064,34.218,24.52,24.52,0,0,1-4.04,3.232,18.54,18.54,0,0,1-12.289,2.7l-34.158-4.24a3.5,3.5,0,1,0-.863,6.947l34.159,4.24a26.318,26.318,0,0,0,3.238.2,25.36,25.36,0,0,0,13.694-3.96,31.548,31.548,0,0,0,4.972-3.955,26.033,26.033,0,0,0,11.832,5.664,30.131,30.131,0,0,0,.67,15.3c-1.5-.43-3.044-.857-4.685-1.28a99.121,99.121,0,0,0-13.594-2.5l-51.122-5.735a3.5,3.5,0,0,0-.781,6.957l51.123,5.735a91.9,91.9,0,0,1,12.628,2.32c4.117,1.06,7.758,2.142,10.824,3.215a30.013,30.013,0,0,0,22.936,12.361,36.111,36.111,0,0,1-.349,4.239,38.573,38.573,0,0,1-5.1,14.182L109.819,264.6a9.624,9.624,0,0,1-6.364,4.53l-8.537,1.732a9.632,9.632,0,0,1-10.456-5.019L76.84,251.029a3.5,3.5,0,0,0-6.225,3.2l7.622,14.809a16.688,16.688,0,0,0,14.8,9.006,16.5,16.5,0,0,0,3.273-.329l8.537-1.733a16.627,16.627,0,0,0,11-7.831L126.569,250a45.509,45.509,0,0,0,6-16.753,42.588,42.588,0,0,0,.428-5.736,29.976,29.976,0,0,0,9.058-3.313c.017-.01.031-.024.048-.034s.056-.027.084-.044a34.613,34.613,0,0,0,6.411-5.657,29.08,29.08,0,0,0,9.986,1.757q.945,0,1.92-.061a3.5,3.5,0,1,0-.438-6.986c-14.259.9-22.182-11.569-22.542-12.146a3.5,3.5,0,0,0-5.964,3.664,36.98,36.98,0,0,0,10.49,10.469,27.015,27.015,0,0,1-3.5,2.977,23,23,0,0,1-33.237-26.779c3.7-1.47,11.807-5.868,18.333-17.748a35.594,35.594,0,0,1,10.2-11.906,38.646,38.646,0,0,1,29.705-6.86,54.778,54.778,0,0,0,1.686,19.574A3.5,3.5,0,1,0,172,172.594c-6.527-24.182,8.357-42.539,8.56-42.785a3.5,3.5,0,0,0-5.369-4.492,57.257,57.257,0,0,0-10.53,22.615,45.488,45.488,0,0,0-34.914,8.1,42.551,42.551,0,0,0-12.234,14.207c-6.171,11.233-13.544,14.243-15.364,14.837a19.061,19.061,0,0,1-9.667-35.032,2.769,2.769,0,0,0,1.533-3.471c-.015-.1-2.308-6.536-2.308-9.515a19.108,19.108,0,0,1,15.347-18.708,42.486,42.486,0,0,0-2.313,15.749,3.5,3.5,0,0,0,3.5,3.416h.086a3.5,3.5,0,0,0,3.415-3.583c-.478-20.038,11.427-24.327,12.007-24.524a3.5,3.5,0,0,0-2.118-6.672,20.832,20.832,0,0,0-6.7,3.994,24.076,24.076,0,0,1,32.165-20.7,3.5,3.5,0,0,0,4.2-1.51,26.111,26.111,0,0,1,22.373-12.781A25.683,25.683,0,0,1,189.11,76.83a26.9,26.9,0,0,0-9.291,10.176,19.889,19.889,0,0,1-5.931,7.356,13.53,13.53,0,0,1-7.429,2.943,3.5,3.5,0,0,0,.1,7h.1A20.322,20.322,0,0,0,178,100.025a26.783,26.783,0,0,0,8.076-9.886c2.969-5.932,9.012-8.784,10.13-9.27a28.647,28.647,0,0,1,34.819,21.246c-3.569-.212-8.393-.059-12.049,1.694a29.557,29.557,0,0,0-8.725-5.064,3.5,3.5,0,1,0-2.18,6.652,23.061,23.061,0,0,1,13.774,14.989,3.5,3.5,0,1,0,6.74-1.887,28.746,28.746,0,0,0-4.349-9.087,31.428,31.428,0,0,1,10.136.11,28.64,28.64,0,0,1,10,49.9,3.5,3.5,0,0,0-.608,4.835,25.291,25.291,0,0,1,5.109,15.32,25.565,25.565,0,0,1-20.374,25c-6.429.63-11.549-.6-15.219-3.681-5.6-4.7-6.245-12.357-6.257-12.524a3.5,3.5,0,0,0-6.986.454c.028.433.76,10.675,8.672,17.371,4.358,3.689,9.931,5.548,16.606,5.548h.026a25.535,25.535,0,0,1-32.833,21.262,3.5,3.5,0,0,0-3.265.653,28.579,28.579,0,0,1-39.4-2.767,3.5,3.5,0,1,0-5.178,4.711,35.415,35.415,0,0,0,4.706,4.3,51.59,51.59,0,0,0-13.425,15.467l-6.1,10.713a18.022,18.022,0,0,0,1.053,19.43L146.3,306.806a3.5,3.5,0,0,0,5.674-4.1l-15.392-21.291a11.006,11.006,0,0,1-.643-11.864l6.1-10.713a44.145,44.145,0,0,1,12.84-14.3c.335-.234.67-.462,1-.681a35.352,35.352,0,0,0,24.468,2.131,37.5,37.5,0,0,0,23.539,8.234,35.321,35.321,0,0,0,12.983-2.453l8.376,15.476a22.859,22.859,0,0,1,2.215,15.822l-6.385,28.83a3.5,3.5,0,1,0,6.834,1.513l6.385-28.829a29.864,29.864,0,0,0-2.445-19.8l5.729-13.555.855,1.593a29.834,29.834,0,0,0,23.107,15.572l21.706,2.342a3.5,3.5,0,1,0,.752-6.959l-21.707-2.342a22.843,22.843,0,0,1-17.69-11.921l-8.927-16.642c3.12-9.145.584-17.742-1.56-22.619a32.615,32.615,0,0,0,20.894-23.3c1.644-.516,3.43-1.019,5.339-1.5a76.958,76.958,0,0,1,18.765-2.279h26.162a3.5,3.5,0,0,0,0-7H279.113a83.985,83.985,0,0,0-20.474,2.49c-.953.24-1.871.488-2.77.738a32.21,32.21,0,0,0-4.681-16.645c.739-.709,1.437-1.452,2.107-2.215,6.951,2.4,17.815,4.648,34.166,4.648,5.417,0,11.437-.247,18.111-.818a3.5,3.5,0,1,0-.6-6.974c-23.813,2.034-38.6-.148-47.433-2.831a35.6,35.6,0,0,0-7.128-43.88A32.547,32.547,0,0,1,261.1,89.539l17.44-15.807A16.4,16.4,0,0,1,292.7,69.823l29.242,5.85a3.5,3.5,0,1,0,1.373-6.863Z"/><path d="M301.98,54.122l20.247,2.319a3.411,3.411,0,0,0,.4.023,3.5,3.5,0,0,0,.395-6.978l-20.247-2.319a9.71,9.71,0,0,1-8.61-9.651V21.406a3.5,3.5,0,0,0-7,0v16.11A16.707,16.707,0,0,0,301.98,54.122Z"/><path d="M33.25,89.453A21.946,21.946,0,0,0,48.869,65.532l-2.78-20.493a3.5,3.5,0,0,0-6.936.941l2.781,20.494A14.911,14.911,0,0,1,31.322,82.725L16.411,87a3.5,3.5,0,1,0,1.928,6.729Z"/><path d="M121.679,291.75a14.311,14.311,0,0,0-14.722-6.02L90.819,289a14.276,14.276,0,0,0-8.885,5.81l-15.586,22.18a3.5,3.5,0,1,0,5.726,4.026l15.587-22.182a7.3,7.3,0,0,1,4.547-2.973l16.138-3.268a7.315,7.315,0,0,1,7.536,3.08l11.939,17.645a3.5,3.5,0,1,0,5.8-3.921Z"/><path d="M69.363,273.188,59.308,257.356A3.5,3.5,0,0,0,53.4,261.11l10.055,15.831a13.383,13.383,0,0,1-.639,15.209L50.093,308.891a3.5,3.5,0,1,0,5.572,4.236l12.723-16.74A20.411,20.411,0,0,0,69.363,273.188Z"/><path d="M223.245,150.9a17.752,17.752,0,0,0-1.139-9.6c-3.307-8.14-14.674-8.757-18.536-.865a15.371,15.371,0,0,0-1.61,6.535,13.12,13.12,0,0,0,3.308,8.618C210.87,162.384,221.871,159.6,223.245,150.9Z"/><path d="M139.81,176.308a11.011,11.011,0,0,0-4.156,2.432,9.386,9.386,0,0,0-2.772,5.992,7.277,7.277,0,0,0,11.365,6.887,12.7,12.7,0,0,0,4.358-5.371A7.269,7.269,0,0,0,139.81,176.308Z"/><path d="M145.744,119.433a4.535,4.535,0,1,0,5.755-2.83A4.536,4.536,0,0,0,145.744,119.433Z"/><path d="M180.394,190.786a4.535,4.535,0,1,0-5.754,2.83A4.535,4.535,0,0,0,180.394,190.786Z"/></svg>