<?xml version="1.0" ?><svg viewBox="0 0 24 24" xmlns="http://www.w3.org/2000/svg"><title/><g data-name="Layer 2" id="Layer_2"><polygon points="11 18 4.72 18 6.76 14.44 7.05 15.32 8.95 14.68 7.72 11 4 11 4 13 5.28 13 1.28 20 11 20 11 18"/><polygon points="16.13 12.5 19.28 18 15.41 18 15.71 17.71 14.29 16.29 11.59 19 14.29 21.71 15.71 20.29 15.41 20 22.72 20 17.87 11.5 16.13 12.5"/><polygon points="12.68 9.95 16.63 11.27 17.95 7.32 16.05 6.68 15.76 7.56 12 0.98 7.13 9.5 8.87 10.5 12 5.02 13.83 8.22 13.32 8.05 12.68 9.95"/></g></svg>