<?xml version="1.0" ?><svg data-name="Layer 1" id="Layer_1" viewBox="0 0 128 128" xmlns="http://www.w3.org/2000/svg"><defs><style>.cls-1{fill:none;stroke:#000;stroke-linecap:round;stroke-linejoin:round;stroke-width:2px;}</style></defs><title/><path class="cls-1" d="M66,88s1.09,13.54,1.15,17.3a2.14,2.14,0,0,0,2,2.12H94"/><path class="cls-1" d="M9.65,107.22a1.42,1.42,0,0,0,1.41-1.42h0a1.43,1.43,0,0,0-.68-1.21L8,103.19s7.65-6.24,7.85-7.65l.21-1.41.15-1.19"/><path class="cls-1" d="M3.82,107.22C.19,106,3.92,101,6.94,98c2.26-2.27,2.37-7,2.29-9.23v-1"/><path class="cls-1" d="M61.43,47.71s1,10.59,6.17,11.92,10,2.64,10,2.64"/><line class="cls-1" x1="74.83" x2="83.94" y1="61.52" y2="75.43"/><polyline class="cls-1" points="60 38.44 55.09 30.85 54.87 30.5"/><polygon class="cls-1" points="48.05 20.19 49.48 29.4 54.87 30.5 55.99 25 48.05 20.19"/><path class="cls-1" d="M106.37,55.73s5.74,6.53,5.31,8.07c-.39,1.39.89,3.53,1.33,4.85a1.34,1.34,0,0,0,1.28.92h0a1.34,1.34,0,0,0,1.29-1,10.52,10.52,0,0,0,.51-4.8c-.53-2.11-8.29-16.94-8.29-16.94"/><line class="cls-1" x1="1.5" x2="62.69" y1="107.22" y2="107.22"/><line class="cls-1" x1="100.92" x2="107.68" y1="107.34" y2="107.34"/><line class="cls-1" x1="113.77" x2="126.5" y1="107.39" y2="107.39"/><line class="cls-1" x1="7.91" x2="121.41" y1="112.63" y2="112.63"/><path class="cls-1" d="M78.56,67.22S82.19,64,80.76,61c-1.14-2.44-3.53-3.13-6.53-4.3s-4.77-2.06-4.77-2.06L66.81,43.47"/><path class="cls-1" d="M23.64,107.22A1.75,1.75,0,0,1,22,105.53c0-.21.06-.44.09-.67.67-4.11.8-8.6-3.31-10.6C4,87.06,5.54,80.35,8.45,77.7s11.79-9.4,14.31-11.26,7-1.19,7-1.19.93-6.71,6.41-6.71c4.5,0,6.17,3.8,5.51,5.52s2.38.39,2.38,4.37-4.77,4.24-4.77,4.24-3.18,0-2.51,2.12-.53,12.85-.53,12.85a19.6,19.6,0,0,1,5.43,14.17c0,2.75-.57,4.07-1.06,4.69a2.27,2.27,0,0,1-1.45.72"/><path class="cls-1" d="M36.42,107.22a1.77,1.77,0,0,1-1.61-1.44h0l.13-1.06c.13-1.06,2-1.32,2.39-2.25.29-.68-.57-3.18-2.06-6.36a20.59,20.59,0,0,0-3-4.76c-3.93-4.52-3-10.87-3-10.87L20.5,84.32s6.23,6.36,6.76,8,0,4.49-.13,8.21c-.05,1.51,1.11,2.16,2.16,2.62a2.32,2.32,0,0,1,1.32,2.84,2.09,2.09,0,0,1-1.4,1.28"/><path class="cls-1" d="M96.26,70.58a12,12,0,0,1,.89,2.55,15.91,15.91,0,0,1-3.24,13.54c-1.5,1.87-3.23,4.13-4.54,6.16-1.48,2.28-2.82,4.29-3.78,5.72a3.42,3.42,0,0,0,.31,4.23l4.31,4.61"/><path class="cls-1" d="M77.57,107.39A1.64,1.64,0,0,0,79.34,106,2.75,2.75,0,0,0,77,102.78a20.1,20.1,0,0,1-2.76-.51,3.65,3.65,0,0,1-2.37-3.6c.17-3.48.46-8.42.87-10.7.66-3.7.18-14.3-1-20.4-.35-1.77,1-6.62,1-6.62"/><path class="cls-1" d="M116.31,107.39a2.19,2.19,0,0,1-2.19-2.08c-.14-3-.7-8.78-2.85-13.47-3.07-6.68-1.81-8.85-1.81-8.85L98.83,70.15"/><path class="cls-1" d="M99.33,43.68l-2.48,7.38a3.56,3.56,0,0,0-.07,2.07c.59,2.27,2,7.57,2.55,9.08a24.74,24.74,0,0,1,.64,5.6,2.77,2.77,0,0,1-2.77,2.87h0A2.77,2.77,0,0,1,94.42,68a41,41,0,0,1,0-4.4c.17-1.77-3.71-10.41-3.88-11.55s3.88-13,4.76-16.86S98,30.81,98,30.81c1.24-1.41.18-4.77.18-4.77-2-6.34,1.55-10.67,5.58-10.67,3.78,0,5.22,1.88,6.09,3.6s0,5.13,0,5.13l.37.44a3,3,0,0,1,.22,3.52l-1.12,1.73A3,3,0,0,1,106,31l-1.19-.38v4.06a15.41,15.41,0,0,1,3,12.17c-1.24,7.42-3,13.24.53,19.77s8.29,17.64,8.29,17.64l1.95,15c0,2.92,3.56,3.73,5.37,4a2.32,2.32,0,0,1,2,3,1.63,1.63,0,0,1-1.6,1.19h0"/><path class="cls-1" d="M53.3,107.22l-4-4.26A3.42,3.42,0,0,1,49,98.73c1-1.43,2.3-3.44,3.78-5.72,2.91-4.51,8.66-8.48,8.66-8.48s.61-9-1.78-13.78,0-7.41,0-10.86S57.27,48.76,57.27,44s5.3-6.36,5.3-10.34.7-10.33,6-10.33A5.15,5.15,0,0,1,74,28.42a4.22,4.22,0,0,1,1.7,2.63c.47,2.68-1.18,4.45-3.92,5-2.38.48-1.92,3-1.21,4,3.43,4.57,3.49,11.57,3,15.81l0,.5"/><path class="cls-1" d="M59.65,70.75S65.75,76.32,66,88L55.75,97.79a2.94,2.94,0,0,0-.28,3.93l.82,1L59,106s1.29,1.21-.45,1.21"/><path class="cls-1" d="M90.63,107.39c2.21,0,4-2.52,2.59-4.26l-1.15-1.58a2.93,2.93,0,0,1,.28-3.93L101.9,87A5.86,5.86,0,0,0,103,85.17l2.73-6.68"/></svg>