<?xml version="1.0" ?><svg data-name="Layer 3" id="Layer_3" viewBox="0 0 100 100" xmlns="http://www.w3.org/2000/svg"><title/><path d="M14.60791,54.47754A4.47754,4.47754,0,1,0,10.13086,50,4.48283,4.48283,0,0,0,14.60791,54.47754Zm0-5.95508A1.47754,1.47754,0,1,1,13.13086,50,1.47924,1.47924,0,0,1,14.60791,48.52246Z"/><path d="M48.27344,53.27051a1.467,1.467,0,0,0,.33545.03808,1.49976,1.49976,0,0,0,.33252-2.96191L48.062,50.146a5.90174,5.90174,0,0,0-.50659-2.22815l.70386-.5614a1.50028,1.50028,0,0,0-1.8711-2.34571l-.70745.56427a5.91852,5.91852,0,0,0-2.05524-.99206v-.90229a1.5,1.5,0,0,0-3,0v.90229a5.91852,5.91852,0,0,0-2.05524.99206l-.70746-.56427a1.50028,1.50028,0,1,0-1.87109,2.34571l.70386.5614A5.90194,5.90194,0,0,0,36.189,50.146l-.87939.20068a1.49976,1.49976,0,0,0,.33252,2.96191,1.464,1.464,0,0,0,.33545-.03808l.87726-.2002a5.97864,5.97864,0,0,0,1.42566,1.78552l-.3913.81214a1.50033,1.50033,0,0,0,2.70313,1.30273l.38983-.80908a5.85166,5.85166,0,0,0,2.28674,0l.38983.80908A1.50033,1.50033,0,0,0,46.36182,55.668l-.3913-.81214a5.97864,5.97864,0,0,0,1.42566-1.78552Zm-6.148.0039a2.94531,2.94531,0,1,1,2.9458-2.94531A2.94879,2.94879,0,0,1,42.12549,53.27441Z"/><path d="M72.74658,38.88086a1.50008,1.50008,0,0,0,1.5,1.5,1.219,1.219,0,0,1,1.21778,1.21777V41.955A8.11649,8.11649,0,0,0,71.646,43.799l-.28174-.22473a1.21818,1.21818,0,0,1-.19336-1.71094,1.50027,1.50027,0,1,0-2.3457-1.87109,4.17843,4.17843,0,0,0-.8971,2.7594,4.17708,4.17708,0,0,0-2.49158,1.48962,1.50028,1.50028,0,1,0,2.34571,1.87109,1.21638,1.21638,0,0,1,1.71142-.19238l.27667.22058a8.09368,8.09368,0,0,0-.95489,3.81848c0,.10743.012.21186.01611.3183l-.35107.08014a1.22145,1.22145,0,0,1-.91895-.15625,1.20912,1.20912,0,0,1-.53906-.76074,1.50005,1.50005,0,1,0-2.9248.668,4.17169,4.17169,0,0,0,1.5971,2.42316,4.173,4.173,0,0,0-.38714,2.87664,1.5001,1.5001,0,0,0,1.46093,1.166,1.46392,1.46392,0,0,0,.33545-.03809,1.49958,1.49958,0,0,0,1.12842-1.7959,1.2183,1.2183,0,0,1,.916-1.459l.34454-.07867a8.18678,8.18678,0,0,0,2.65082,3.31109l-.15747.32715a1.21651,1.21651,0,0,1-1.625.56836,1.50012,1.50012,0,1,0-1.30176,2.70312,4.02664,4.02664,0,0,0,2.89355.26612A4.17837,4.17837,0,0,0,73.957,62.4707a1.50012,1.50012,0,0,0,1.30176-2.70312,1.21991,1.21991,0,0,1-.56934-1.626l.1557-.32348a7.90771,7.90771,0,0,0,4.24006-.00037l.15551.32287a1.21909,1.21909,0,0,1-.56836,1.626,1.50012,1.50012,0,0,0,1.30176,2.70313,4.17771,4.17771,0,0,0,2.0036-2.09229,4.0262,4.0262,0,0,0,2.89337-.26611,1.50012,1.50012,0,1,0-1.30175-2.70313,1.2165,1.2165,0,0,1-1.62482-.56744l-.00067-.00189-.15723-.32617a8.18681,8.18681,0,0,0,2.64978-3.31043l.34534.079a1.21606,1.21606,0,0,1,.916,1.457,1.50006,1.50006,0,0,0,2.92481.668,4.17618,4.17618,0,0,0-.38318-2.86792,4.1901,4.1901,0,0,0,1.59216-2.43188,1.50005,1.50005,0,1,0-2.9248-.668,1.22409,1.22409,0,0,1-1.458.918l-.35107-.08014c.00409-.10614.01611-.21021.01611-.31733a8.09372,8.09372,0,0,0-.95569-3.82l.277-.221a1.21782,1.21782,0,0,1,1.71142.19336,1.50028,1.50028,0,0,0,2.34571-1.8711,4.1742,4.1742,0,0,0-2.49274-1.49066,4.18026,4.18026,0,0,0-.8974-2.75934,1.50028,1.50028,0,0,0-2.3457,1.8711,1.21993,1.21993,0,0,1-.1919,1.71191l-.2821.225a8.117,8.117,0,0,0-3.818-1.84332v-.35627a1.219,1.219,0,0,1,1.21777-1.21777,1.5,1.5,0,0,0,0-3,4.17877,4.17877,0,0,0-2.71777,1.01929,4.1788,4.1788,0,0,0-2.71778-1.01929A1.50007,1.50007,0,0,0,72.74658,38.88086ZM82.11377,49.959a5.14917,5.14917,0,1,1-5.14941-5.14843A5.15478,5.15478,0,0,1,82.11377,49.959Z"/><path d="M74.27,49.34961a1.45691,1.45691,0,0,0,1.05957.44043,1.55783,1.55783,0,0,0,.57031-.11035,1.61555,1.61555,0,0,0,.48975-.33008,1.39524,1.39524,0,0,0,.32031-.47949,1.435,1.435,0,0,0,.11963-.58008A1.4195,1.4195,0,0,0,76.7998,48a1.29564,1.29564,0,0,0-.08984-.28027.94672.94672,0,0,0-.14014-.25977,1.29031,1.29031,0,0,0-.18017-.23047,1.31283,1.31283,0,0,0-.23-.17969.93207.93207,0,0,0-.25977-.13964,1.33415,1.33415,0,0,0-.28027-.09082,1.49854,1.49854,0,0,0-.58984,0,1.55481,1.55481,0,0,0-.27979.09082.86875.86875,0,0,0-.25.13964,1.01884,1.01884,0,0,0-.23.17969,2.11193,2.11193,0,0,0-.19043.23047,1.36666,1.36666,0,0,0-.21973.54,1.4201,1.4201,0,0,0-.03027.29,1.61179,1.61179,0,0,0,.11035.58008A1.57866,1.57866,0,0,0,74.27,49.34961Z"/><path d="M75.66992,50.80957a1.34253,1.34253,0,0,0-.28027.08984,1.28624,1.28624,0,0,0-.25977.14063,1.37453,1.37453,0,0,0-.23.18945.97643.97643,0,0,0-.18017.22071,1.30877,1.30877,0,0,0-.14014.25976,1.53127,1.53127,0,0,0-.08984.28027,1.50126,1.50126,0,0,0,.41015,1.35938,1.43322,1.43322,0,0,0,.48975.32031A1.38812,1.38812,0,0,0,75.96,53.79a1.47168,1.47168,0,0,0,.58008-.12012,1.39487,1.39487,0,0,0,.48-.32031A1.47422,1.47422,0,0,0,77.46,52.29a1.51582,1.51582,0,0,0-.03027-.29981,2.799,2.799,0,0,0-.08008-.28027A2.12432,2.12432,0,0,0,77.21,51.4502a1.40667,1.40667,0,0,0-.18994-.22071A1.49655,1.49655,0,0,0,75.66992,50.80957Z"/><path d="M79.16992,50.75977a1.55515,1.55515,0,0,0,.56983-.11036,1.75365,1.75365,0,0,0,.49023-.33007,1.47762,1.47762,0,0,0,.40967-1.34961,1.33184,1.33184,0,0,0-.08985-.28028,1.30849,1.30849,0,0,0-.14013-.25976A1.26927,1.26927,0,0,0,80.23,48.2002a1.308,1.308,0,0,0-.23-.18067.96128.96128,0,0,0-.26025-.13965A1.27434,1.27434,0,0,0,79.46,47.79a1.43061,1.43061,0,0,0-.87012.08984.96128.96128,0,0,0-.26025.13965,1.308,1.308,0,0,0-.23.18067,1.5486,1.5486,0,0,0-.42969,1.05957,1.48558,1.48558,0,0,0,1.5,1.5Z"/><path d="M22.99365,51.459h4.08057l-.45508.45508a1.49984,1.49984,0,1,0,2.12109,2.1211L31.755,51.02039a1.50272,1.50272,0,0,0,.32673-.49152l.007-.02258a1.45879,1.45879,0,0,0,0-1.09461l-.007-.02258a1.50272,1.50272,0,0,0-.32673-.49152l-3.01477-3.01477a1.49984,1.49984,0,1,0-2.12109,2.1211l.45508.45507H22.99365a1.5,1.5,0,0,0,0,3Z"/><path d="M56.85889,54.03516a1.49946,1.49946,0,0,0,2.12109,0l3.01526-3.01477a1.507,1.507,0,0,0,.18671-.22754c.01226-.01831.02-.03907.03143-.05786a1.4818,1.4818,0,0,0,.10663-.19977c.01153-.02771.01678-.0575.02667-.08582a1.46822,1.46822,0,0,0,.059-.19415,1.48516,1.48516,0,0,0,0-.59253,1.46788,1.46788,0,0,0-.05933-.19513c-.00976-.028-.01495-.05743-.02636-.08484a1.48591,1.48591,0,0,0-.10822-.2027c-.01086-.01782-.01813-.03741-.02972-.05481a1.50827,1.50827,0,0,0-.18683-.22766L58.98,45.88281a1.49984,1.49984,0,0,0-2.12109,2.1211l.45507.45507H53.23389a1.5,1.5,0,0,0,0,3H57.314l-.45507.45508A1.49946,1.49946,0,0,0,56.85889,54.03516Z"/></svg>