<?xml version="1.0" ?><!DOCTYPE svg  PUBLIC '-//W3C//DTD SVG 1.1//EN'  'http://www.w3.org/Graphics/SVG/1.1/DTD/svg11.dtd'><svg height="512px" style="enable-background:new 0 0 512 512;" version="1.1" viewBox="0 0 512 512" width="512px" xml:space="preserve" xmlns="http://www.w3.org/2000/svg" xmlns:xlink="http://www.w3.org/1999/xlink"><g id="_x33_4_x2C__atom_x2C__nuclear_x2C__molecule_x2C__chemistry_x2C__science"><g><path d="M391.461,201.646c3.559-5.957,6.837-11.774,9.764-17.414    c18.896-36.376,24.321-65.14,11.88-77.582c-12.444-12.443-41.17-6.979-77.55,11.914c-5.674,2.926-11.49,6.168-17.445,9.729    c4.439,18.998,7.967,40.184,10.398,62.99c10.82,1.128,21.289,2.537,31.336,4.158C370.91,197.24,381.487,199.32,391.461,201.646     M176.445,409.015c5.64-2.926,11.455-6.203,17.375-9.764c-4.404-18.964-7.931-40.185-10.363-62.956    c-6.836-0.738-13.536-1.549-20.057-2.467c-15.228-2.149-29.606-4.794-42.896-7.895c-3.559,5.956-6.801,11.773-9.729,17.412    c-18.895,36.377-24.356,65.105-11.915,77.548C111.305,433.337,140.065,427.907,176.445,409.015z M189.978,222.267    c3.948-4.161,7.967-8.284,12.09-12.407c4.127-4.124,8.25-8.143,12.375-12.091c-7.721,0.458-15.298,1.021-22.735,1.727    C191.002,206.934,190.438,214.512,189.978,222.267z M309.896,317.685c-4.127,4.124-8.25,8.177-12.374,12.091    c7.721-0.424,15.333-1.021,22.771-1.727c0.67-7.402,1.27-15.016,1.729-22.736C318.074,309.438,314.021,313.561,309.896,317.685z     M248.881,167.067c-16.144-12.973-31.937-24.288-46.954-33.806c-3.913,17.344-7.05,36.554-9.304,57.105    c10.399-0.953,21.113-1.693,32.042-2.151C232.772,180.814,240.844,173.729,248.881,167.067z M346.908,263.789    c-4.759-5.744-9.731-11.527-14.877-17.307c0.141,5.71,0.211,11.492,0.211,17.307c0,5.817-0.07,11.598-0.211,17.308    C337.177,275.316,342.149,269.534,346.908,263.789z M386.492,317.825c-9.518-15.016-20.867-30.807-33.804-46.915    c-6.665,8.002-13.747,16.108-21.151,24.181c-0.457,10.927-1.197,21.643-2.148,32.042    C349.938,324.875,369.113,321.738,386.492,317.825z M318.109,399.251c5.955,3.561,11.771,6.838,17.445,9.764    c36.38,18.893,65.105,24.322,77.55,11.879c12.441-12.442,7.016-41.171-11.88-77.548c-2.927-5.639-6.205-11.456-9.764-17.412    c-18.965,4.441-40.184,7.965-62.953,10.361c-1.06,9.766-2.291,19.246-3.702,28.377    C322.903,376.832,320.646,388.395,318.109,399.251z M263.119,360.513c16.108,12.937,31.901,24.286,46.918,33.769    c2.219-9.766,4.194-20.127,5.886-30.983c1.306-8.39,2.468-17.132,3.419-26.085c-10.399,0.951-21.114,1.656-32.043,2.15    C279.228,346.765,271.12,353.814,263.119,360.513z M238.693,339.82c5.78,5.147,11.561,10.117,17.305,14.875    c5.749-4.758,11.493-9.728,17.309-14.875c-5.71,0.143-11.49,0.213-17.309,0.213C250.148,340.033,244.403,339.963,238.693,339.82z     M189.311,291.39c6.131,6.661,12.547,13.289,19.138,19.915c6.629,6.627,13.29,13.008,19.916,19.176    c9.058,0.353,18.26,0.528,27.634,0.528c9.342,0,18.579-0.176,27.603-0.528c6.661-6.168,13.287-12.549,19.916-19.176    c6.626-6.626,13.007-13.254,19.173-19.915c0.354-9.06,0.529-18.26,0.529-27.601c0-9.375-0.175-18.576-0.529-27.635    c-6.166-6.662-12.547-13.289-19.173-19.915c-6.629-6.593-13.255-13.007-19.916-19.142c-9.023-0.352-18.261-0.527-27.603-0.527    c-9.374,0-18.576,0.176-27.634,0.527c-6.661,6.135-13.287,12.549-19.916,19.142c-6.591,6.626-13.006,13.288-19.138,19.915    c-0.354,9.059-0.53,18.26-0.53,27.635C188.781,273.13,188.956,282.33,189.311,291.39z M165.092,263.789    c4.759,5.745,9.697,11.527,14.842,17.308c-0.105-5.71-0.176-11.49-0.176-17.308c0-5.814,0.035-11.597,0.176-17.307    C174.789,252.262,169.851,258.045,165.092,263.789z M125.508,209.719c9.483,15.051,20.833,30.807,33.769,46.949    c6.7-8.036,13.747-16.107,21.152-24.18c0.456-10.962,1.197-21.678,2.148-32.077C162.028,202.668,142.852,205.805,125.508,209.719z     M110.775,184.232c2.927,5.64,6.17,11.422,9.729,17.377c18.965-4.404,40.184-7.93,62.954-10.361    c2.432-22.771,5.959-43.957,10.398-62.955c-5.956-3.561-11.771-6.803-17.411-9.729c-36.379-18.894-65.14-24.357-77.584-11.914    C86.419,119.093,91.88,147.856,110.775,184.232z M248.881,360.479c-8.037-6.664-16.108-13.714-24.215-21.115    c-10.929-0.494-21.643-1.234-32.042-2.15c2.253,20.516,5.391,39.727,9.304,57.068    C216.979,384.764,232.772,373.449,248.881,360.479z M331.572,232.453c7.404,8.107,14.451,16.179,21.116,24.215    c12.972-16.107,24.321-31.934,33.804-46.949c-8.883-2.01-18.26-3.809-28.059-5.395c-9.307-1.516-19-2.82-29.01-3.913    C330.375,210.811,331.08,221.526,331.572,232.453z M297.522,197.769c4.124,3.948,8.247,7.967,12.374,12.091    c4.125,4.123,8.178,8.246,12.091,12.407c-0.425-7.755-1.024-15.333-1.729-22.771C312.855,198.79,305.243,198.227,297.522,197.769z     M180.428,295.091c-7.405-8.072-14.487-16.144-21.152-24.181c-12.936,16.108-24.286,31.899-33.769,46.915    c12.161,2.749,25.275,5.146,39.127,7.085c5.851,0.812,11.845,1.552,17.941,2.223C181.625,316.733,180.884,306.018,180.428,295.091    z M202.068,317.685c-4.124-4.124-8.142-8.247-12.09-12.372c0.46,7.721,1.025,15.334,1.73,22.736    c7.437,0.705,15.014,1.303,22.77,1.762C210.318,325.861,206.195,321.809,202.068,317.685z M287.299,188.216    c10.929,0.493,21.644,1.198,32.043,2.151c-2.223-20.552-5.391-39.762-9.305-57.105c-15.017,9.518-30.81,20.868-46.918,33.806    C271.12,173.729,279.228,180.814,287.299,188.216z M263.824,29.244c-2.008-2.01-4.794-3.242-7.826-3.242    c-3.063,0-5.815,1.232-7.822,3.242c-2.011,2.01-3.243,4.759-3.243,7.824c0,1.411,0.281,2.785,0.776,4.054l0,0l0.14,0.353    l0.035,0.035l0.176,0.423l0.035,0.035v0.037l0.035,0.069l0.035,0.035l0.035,0.105l0,0l0.035,0.105h0.035l0.035,0.07l0.035,0.037    l0.039,0.141l0.035,0.035l0.105,0.175l0,0l0.07,0.107v0.035l0.035,0.034l0.035,0.07l0.035,0.035l0.035,0.07h0.035l0.035,0.107    l0.07,0.07l0.035,0.035l0.035,0.07l0.035,0.035l0.035,0.035l0.035,0.07v0.035l0.07,0.071l0,0l0.074,0.105l0.07,0.069l0.035,0.035    l0.035,0.07l0.035,0.035l0.035,0.037l0.035,0.07h0.035l0.07,0.105l0,0l0.07,0.07l0.635,0.705h0.035l0.07,0.07v0.035l0.07,0.035    l0.175,0.178l0.035,0.035l0.035,0.034l0.07,0.07l0.074,0.07h0.035l0.07,0.07l0.035,0.035l0.035,0.036l0.07,0.035l0.035,0.035    l0.07,0.035l0,0l0.07,0.07l0.035,0.035l0.07,0.035l0.035,0.035l0.035,0.035l0.07,0.035l0.035,0.037l0.074,0.035v0.035l0.105,0.035    v0.035l0.07,0.035l0.035,0.034l0.035,0.035l0.07,0.035h0.035l0.105,0.07l0.07,0.071h0.035l0.07,0.035l0.035,0.035l0.035,0.035    l0.07,0.035l0.109,0.07l0,0l0.105,0.035l0.035,0.035l0.07,0.035h0.035l0.035,0.035l0.07,0.037l0.035,0.035l0.105,0.035l0,0    l0.07,0.035l0.035,0.035l0.07,0.035h0.074l0.035,0.035l0.176,0.07l0.035,0.034l0.105,0.035l0.07,0.037l0.07,0.035l0,0l0.105,0.034    l0,0l0.105,0.035h0.035l0.074,0.035l0.035,0.035l0.07,0.035h0.07l0.035,0.035l0.07,0.035l0.105,0.035h0.035l0.07,0.035h0.07h0.035    l0.07,0.035h0.035l0.109,0.037l0,0l0.105,0.035h0.035l0.07,0.035h0.07l0.035,0.035h0.07l0.035,0.035h0.105l0,0l0.105,0.035h0.035    l0.07,0.035h0.073h0.035l0.07,0.035h0.035l0.105,0.035l0,0h0.105h0.035l0.07,0.035h0.07h0.035l0.105,0.035l0,0h0.109h0.035    l0.07,0.036h0.07h0.07h0.07h0.035l0.105,0.035l0,0h0.105h0.035h0.07h0.07l0.035,0.035h0.074h0.035h0.14l0,0h0.105h0.035h0.07    h0.035h0.07h0.105l0,0h0.14h0.109h0.035h0.07h0.07h0.035h0.105l0,0h0.141l0,0h0.105h0.035h0.07l0.074-0.035h0.035h0.105l0,0h0.105    h0.035l0.105-0.035h0.035h0.07h0.07h0.035l0.069-0.036h0.035h0.109l0,0l0.105-0.035h0.035h0.069l0.07-0.035h0.035h0.105l0,0    l0.105-0.035h0.035l0.176-0.035l0.073-0.035h0.035l0.105-0.035l0,0h0.105l0.034-0.035h0.07l0.07-0.035h0.035l0.07-0.035h0.035    l0.214-0.072h0.035l0.07-0.035h0.07l0.105-0.035h0.035l0.104-0.035v-0.035h0.105v-0.035h0.07l0.319-0.141l0,0l0.105-0.034h0.035    l0.07-0.035l0.175-0.072v-0.034c1.235-0.529,2.327-1.305,3.243-2.256l0.425-0.423l0.035-0.036    c1.727-1.973,2.783-4.547,2.783-7.332C267.032,34.003,265.8,31.219,263.824,29.244z M272.32,48.736    c-0.635,0.918-1.375,1.729-2.151,2.539c-1.445,1.443-3.172,2.678-5.039,3.666l0,0l-0.671,0.314l0,0l-0.351,0.178l-0.073,0.035    l-0.141,0.035l-0.105,0.035l-0.07,0.035l-1.267,0.494h-0.039l-0.14,0.07l-0.07,0.035h-0.105l-0.141,0.07h-0.07l-0.175,0.07l0,0    l-0.18,0.035l-0.526,0.143l-0.035,0.035l-0.214,0.035l-0.176,0.035l-0.069,0.035h-0.141l-0.105,0.035l-0.07,0.035l-0.179,0.035    h-0.035l-0.176,0.034h-0.035l-0.175,0.035h-0.07l-0.105,0.035l-0.105,0.037h-0.108l-0.211,0.035l-0.176,0.034h-0.035h-0.175    l-0.07,0.035h-0.105h-0.144l-0.07,0.035h-0.176h-0.035l-0.175,0.035h-0.035h-0.176l-0.109,0.035h-0.104h-0.141h-0.07l-0.176,0.035    l0,0h-0.213h-0.035h-0.175h-0.105h-0.105h-0.14h-0.07h-0.179h-0.21h-0.07h-0.14h-0.105h-0.105h-0.141h-0.074h-0.175h-0.035    l-0.175-0.035h-0.07h-0.141h-0.105l-0.109-0.035h-0.141h-0.035l-0.211-0.035l0,0h-0.21l-0.07-0.035h-0.108h-0.141l-0.07-0.035    h-0.175h-0.035l-0.175-0.034h-0.035l-0.179-0.035h-0.07l-0.105-0.037l-0.141-0.035h-0.07l-0.176-0.035h-0.035l-0.179-0.034h-0.035    l-0.175-0.035l-0.07-0.035l-0.105-0.035h-0.14l-0.035-0.035l-0.176-0.035h-0.035l-0.179-0.035l-0.035-0.035l-0.175-0.037h-0.07    l-0.105-0.035l-0.14-0.035l-0.035-0.035l-0.214-0.035l0,0l-0.176-0.07h-0.035l-0.14-0.07h-0.105l-0.105-0.035l-0.144-0.07h-0.035    l-0.175-0.071l-0.176-0.07h-0.07l-0.141-0.07l-0.07-0.034l-0.105-0.035l-0.144-0.035l-0.035-0.035l-0.175-0.072l0,0l-0.176-0.07    l-0.07-0.035l-0.105-0.035l-0.109-0.035l-0.07-0.035l-0.14-0.07l-0.035-0.035l-0.175-0.072h-0.035l-0.141-0.069l-0.07-0.035    l-0.105-0.07l-0.109-0.035l-0.07-0.035l-0.14-0.069h-0.035l-0.175-0.107l0,0l-0.176-0.105l-0.035-0.035l-0.144-0.035l-0.07-0.07    l-0.07-0.035l-0.14-0.07h-0.035l-0.176-0.107v-0.034l-0.14-0.07l-0.07-0.035l-0.109-0.07l-0.105-0.07l-0.07-0.035l-0.14-0.071    v-0.035l-0.176-0.105h-0.035l-0.105-0.105l-0.07-0.035l-0.109-0.072l-0.105-0.07l-0.035-0.035l-0.176-0.104l0,0l-0.14-0.105    l-0.425-0.317l0,0l-0.07-0.035l-0.105-0.105l-0.07-0.037l-0.07-0.07l-0.07-0.035v-0.035l-0.07-0.035l-0.176-0.14l-0.074-0.072    l-0.035-0.035l-0.035-0.034l-0.316-0.246l-0.035-0.035l-0.035-0.035l-0.07-0.072l-0.07-0.07l0,0l-0.07-0.07l-0.109-0.07l0,0    l-0.07-0.07l-0.07-0.071l-0.035-0.035l-0.035-0.035l-0.07-0.07l-0.07-0.069l0,0l-0.07-0.07l-0.07-0.07h-0.035l-0.035-0.072    l-0.07-0.07l-0.035-0.035l-0.035-0.035l-0.07-0.07l-0.074-0.07l0,0l-0.07-0.07l-0.07-0.071l-0.035-0.035l-0.035-0.035l-0.07-0.105    l-0.035-0.034l-0.035-0.035l-0.07-0.07l-0.07-0.072l0,0l-0.07-0.07l-0.07-0.07l-0.035-0.07v-0.035l-0.07-0.07l-0.074-0.072    l-0.07-0.069l-0.07-0.07v-0.035l-0.07-0.035l-0.035-0.104l-0.07-0.072l0,0l-0.07-0.07l-0.07-0.07v-0.035l-0.07-0.07l-0.035-0.07    l-0.035-0.035l-0.035-0.037l-0.07-0.105l-0.035-0.069h-0.039l-0.035-0.07l-0.07-0.105l0,0l-0.07-0.071l-0.035-0.07    c-13.817,12.09-26.048,38.209-35.071,73.459l-0.495,1.834c16.568,10.291,34.049,22.77,51.85,37.186    c17.838-14.381,35.319-26.895,51.888-37.186l-0.495-1.834C298.333,86.945,286.138,60.826,272.32,48.736z M459.563,234.955    c1.727-1.762,2.818-4.193,2.818-6.873c0-2.678-1.092-5.109-2.818-6.838c-1.766-1.762-4.197-2.855-6.875-2.855    s-5.11,1.094-6.837,2.855c-1.48,1.41-2.471,3.35-2.786,5.464l0,0v0.14l0,0v0.07v0.035l-0.035,0.037v0.211l0,0v0.07v0.07l0,0    l-0.035,0.072v0.034v0.07v0.07l0,0v0.07v0.035v0.034v0.072v0.035v0.035v0.07l0,0v0.07v0.07c0,2.68,1.091,5.111,2.856,6.873    c1.727,1.729,4.159,2.82,6.837,2.82h0.07h0.069h0.035h0.07l0,0h0.07h0.074l0,0h0.104l0,0h0.07h0.07l0,0l0.07-0.035h0.035h0.035    h0.105l0,0h0.07h0.035h0.034h0.07h0.035l0.039-0.035h0.07h0.035h0.07h0.035l0.034-0.035h0.07h0.07l0.035-0.035h0.035h0.07h0.035    h0.07l0.035-0.035h0.035h0.069h0.039l0.035-0.035h0.07l0,0l0.07-0.035h0.035h0.035l0.069-0.035h0.035h0.035l0.07-0.035h0.035h0.07    l0,0l0.07-0.035h0.035h0.035l0.07-0.037l0,0h0.038l0.035-0.035h0.07l0,0l0.07-0.034h0.035h0.035l0.07-0.035h0.035l0.034-0.035    h0.07l0,0l0.07-0.035h0.035l0.035-0.035l0.07-0.035h0.07l0.035-0.035h0.038l0.07-0.035l0,0l0.07-0.034h0.035l0.035-0.037h0.07    v-0.035h0.07l0.07-0.035l0.035-0.035h0.069v-0.035l0.07-0.035h0.035l0.035-0.035h0.07v-0.035h0.073l0.035-0.035h0.035l0.035-0.035    l0,0l0.07-0.035l0.035-0.035h0.035l0.07-0.037l0,0l0.07-0.035l0.035-0.035l0,0l0.035-0.035l0.07-0.034l0,0l0.069-0.035    l0.035-0.035l0,0l0.07-0.035h0.035l0.039-0.035l0.035-0.035h0.035l0.069-0.071l0,0l0.07-0.035l0.035-0.035l0,0l0.07-0.035    l0.035-0.035h0.035l0.07-0.035v-0.035l0.07-0.035l0,0l0.035-0.035l0.07-0.035v-0.035l0.069-0.035h0.035l0.035-0.037l0.109-0.105    h0.035l0.035-0.035l0.034-0.035v-0.035l0.07-0.034l0.035-0.035l0.035-0.035l0.035-0.035l0,0l0.07-0.037l0.035-0.034l0.035-0.035    l0.035-0.035l0,0l0.176-0.176l0,0L459.563,234.955z M465.309,241.936c-0.53,0.458-1.095,0.916-1.691,1.339l-0.035,0.035    l-0.07,0.035l0,0l-0.074,0.035l-0.035,0.071l-0.07,0.035l0,0l-0.069,0.035l-0.035,0.035l-0.07,0.035l0,0l-0.035,0.035l-0.07,0.035    l-0.07,0.035l-0.035,0.035l0,0l-0.07,0.035l-0.07,0.035l-0.034,0.035v0.037l-0.07,0.035l-0.074,0.035l-0.035,0.035l-0.07,0.035    l-0.07,0.035l-0.034,0.035h-0.035l-0.035,0.034l-0.07,0.035l-0.035,0.035l-0.035,0.035h-0.035l-0.07,0.037l-0.07,0.034    l-0.035,0.035l0,0l-0.07,0.035l-0.073,0.035l-0.035,0.035l0,0l-0.07,0.035l-0.07,0.035l-0.07,0.035l-0.035,0.035l-0.14,0.072    h-0.035l-0.105,0.035l-0.07,0.07h-0.035l-0.144,0.07l-0.035,0.035l-0.07,0.035l-0.141,0.07l0,0l-0.245,0.106l-0.141,0.07h-0.035    l-0.108,0.069l-0.105,0.035h-0.035l-0.105,0.07h-0.07l-0.07,0.035l-0.14,0.07l0,0l-0.141,0.072l-0.249,0.105h-0.035l-0.105,0.035    l-0.105,0.035h-0.035l-0.141,0.07h-0.035l-0.104,0.035l-0.105,0.035h-0.039l-0.14,0.071h-0.035l-0.105,0.035l-0.105,0.035l0,0    l-0.141,0.035l-0.105,0.035l-0.035,0.035l-0.144,0.034h-0.035l-0.105,0.035l-0.104,0.035h-0.035l-0.141,0.035l-0.035,0.035h-0.105    l-0.141,0.037l0,0l-0.214,0.07h-0.07l-0.14,0.035h-0.035l-0.141,0.035h-0.07l-0.07,0.035l-0.144,0.035h-0.035h-0.105l-0.105,0.035    h-0.035l-0.14,0.035h-0.07h-0.07l-0.141,0.035l0,0l-0.144,0.035h-0.105h-0.07l-0.141,0.037h-0.035h-0.104l-0.105,0.034h-0.035    h-0.18h-0.034l-0.105,0.035h-0.141l0,0l-0.141,0.035h-0.07h-0.069h-0.176l0,0h-0.145l-0.104,0.035h-0.035h-0.141h-0.07h-0.105    h-0.105h-0.034h-0.145h-0.07h-0.105h-0.14c-5.181,0-9.869-2.079-13.252-5.464c-3.352-3.384-5.465-8.072-5.465-13.254v-0.07v-0.035    v-0.07v-0.07l0,0v-0.035v-0.072v-0.069v-0.035v-0.035v-0.035v-0.035v-0.07v-0.069l0,0v-0.072v-0.035v-0.07l0.035-0.07l0,0v-0.035    v-0.07v-0.035v-0.212v-0.035v-0.07v-0.035h0.035v-0.07v-0.071v-0.035v-0.035v-0.035v-0.07v-0.035    c0.07-0.67,0.176-1.304,0.316-1.939c-11.21-4.616-24.181-8.813-38.633-12.408c-10.294,16.532-22.77,34.017-37.187,51.852    c14.382,17.801,26.893,35.285,37.187,51.816c6.734-1.691,13.15-3.49,19.211-5.393c39.093-12.373,63.272-28.834,63.272-46.424    c0-4.053-1.34-8.037-3.843-11.914C472.215,248.491,469.151,245.144,465.309,241.936z M286.843,463.545    c1.727,1.762,4.159,2.854,6.837,2.854c2.681,0,5.113-1.093,6.875-2.819c1.727-1.762,2.818-4.23,2.818-6.873    c0-2.715-1.057-5.147-2.818-6.874c-0.846-0.846-1.832-1.551-2.962-2.009v-0.035l-0.211-0.07h-0.035l-0.315-0.143l0,0    c-0.53-0.175-1.06-0.317-1.625-0.423l0,0l-0.07-0.035h-0.105h-0.07l0,0l-0.069-0.034h-0.035h-0.035h-0.07h-0.035h-0.035    l-0.07-0.035l0,0h-0.035h-0.07h-0.035l-0.179-0.035h-0.07l0,0h-0.07h-0.035h-0.035h-0.069h-0.035l0,0h-0.07h-0.035h-0.035h-0.07    h-0.035l-0.035-0.035h-0.07l0,0h-0.073h-0.07c-2.678,0-5.11,1.128-6.837,2.854c-1.762,1.727-2.856,4.159-2.856,6.874v0.069v0.035    v0.035v0.107l0,0v0.07v0.035v0.035v0.104l0,0v0.07l0.035,0.035v0.035v0.072v0.035v0.07v0.035v0.035v0.069v0.035l0.035,0.072v0.035    v0.035v0.07v0.035v0.035l0.035,0.069v0.035v0.07l0,0v0.072l0.035,0.07l0,0v0.105l0,0l0.038,0.07v0.069l0,0v0.072l0.035,0.035v0.07    v0.035v0.035l0.035,0.07v0.035v0.035l0.035,0.071l0,0v0.07l0.035,0.035v0.07l0.035,0.07l0,0v0.07v0.035l0.035,0.036v0.07l0,0    l0.035,0.07v0.035l0.035,0.141l0,0l0.035,0.071v0.035l0.175,0.458l0,0l0.035,0.07v0.035c0.211,0.458,0.425,0.916,0.706,1.339l0,0    C285.787,462.382,286.278,462.979,286.843,463.545z M280.393,469.89c-0.495-0.529-0.986-1.058-1.411-1.621h-0.035l-0.035-0.072    l-0.034-0.035l-0.105-0.14l-0.035-0.035l-0.035-0.07l0,0l-0.035-0.07l-0.07-0.072l-0.035-0.035l-0.038-0.069l-0.035-0.07    l-0.07-0.07l0,0l-0.035-0.035l-0.035-0.07l-0.07-0.072l-0.035-0.07l-0.035-0.069l-0.035-0.035l0,0l-0.035-0.07l-0.07-0.07    l-0.035-0.072l0,0l-0.035-0.07l-0.034-0.035l-0.035-0.07l0,0l-0.035-0.069l-0.07-0.07l-0.035-0.035v-0.037l-0.035-0.07    l-0.039-0.035l-0.035-0.07l0,0l-0.034-0.069l-0.035-0.07l-0.035-0.035l-0.035-0.037l-0.035-0.07l-0.035-0.035l-0.035-0.07l0,0    l-0.07-0.14l-0.035-0.035l-0.035-0.107l-0.07-0.105l0,0l-0.07-0.141l-0.035-0.069l-0.034-0.072l-0.07-0.105v-0.035l-0.07-0.105    l-0.039-0.07l-0.035-0.071l-0.07-0.141l0,0l-0.035-0.141l-0.034-0.07l-0.035-0.071l-0.07-0.105v-0.035l-0.07-0.105l-0.035-0.106    v-0.035l-0.07-0.141v-0.035l-0.07-0.105l-0.035-0.07l-0.105-0.353l-0.069-0.107v-0.034l-0.035-0.141l-0.039-0.035l-0.035-0.105    l-0.105-0.282v-0.035l-0.035-0.105l-0.035-0.107v-0.035l-0.069-0.14v-0.035l-0.035-0.107l-0.035-0.141l0,0l-0.035-0.14    l-0.035-0.07v-0.072l-0.07-0.141v-0.035l-0.035-0.14v-0.072l-0.035-0.07l-0.07-0.28v-0.072l-0.035-0.07l-0.035-0.176l-0.035-0.142    v-0.07l-0.035-0.07v-0.141v-0.035l-0.038-0.142l-0.035-0.141l-0.035-0.141v-0.035v-0.142l-0.035-0.07v-0.07l-0.035-0.142v-0.035    v-0.141l-0.035-0.105v-0.035v-0.142l-0.035-0.035v-0.141v-0.105v-0.035l-0.035-0.142v-0.07v-0.105v-0.107l-0.035-0.035v-0.175    v-0.035V457.8v-0.143v-0.034l-0.034-0.141v-0.07v-0.072v-0.176l0,0v-0.14v-0.107v-0.07v-0.14c0-5.183,2.116-9.836,5.499-13.254    c3.348-3.384,8.037-5.5,13.217-5.5h0.07h0.035h0.038h0.07h0.035h0.035l0.035,0.035h0.035h0.07h0.035h0.035h0.035h0.034h0.07h0.035    h0.07l0,0h0.035h0.07h0.035h0.073l0,0h0.035h0.07h0.035h0.035l0.105,0.035h0.07h0.035h0.07h0.034l0,0h0.07h0.035l0.07,0.037h0.035    h0.035h0.035h0.039h0.034h0.07h0.035l0,0l0.07,0.035h0.035h0.07h0.035h0.035h0.035h0.035l0.14,0.035l0,0h0.105h0.074l0.035,0.035    h0.035h0.035l0.631,0.105c4.019-10.294,7.687-21.961,10.895-34.755c-16.569-10.294-34.05-22.771-51.854-37.188    c-17.835,14.382-35.316,26.895-51.849,37.188c1.691,6.731,3.488,13.146,5.429,19.209c12.336,39.093,28.799,63.273,46.42,63.273    c4.408,0,8.813-1.622,13.08-4.619C272.956,478.631,276.726,474.789,280.393,469.89z M54.518,296.324    c-1.306,2.326-2.046,4.969-2.046,7.824c0,4.479,1.8,8.496,4.724,11.422c2.892,2.891,6.945,4.688,11.385,4.688    c4.478,0,8.497-1.798,11.388-4.688c1.727-1.727,3.064-3.808,3.875-6.168v-0.037v-0.035l0.035-0.035l0.074-0.245l0.035-0.072l0,0    v-0.035l0.035-0.14l0.035-0.035l0.035-0.105v-0.035v-0.035v-0.037l0.035-0.035v-0.035l0.035-0.105l0,0l0.035-0.176l0,0v-0.036    l0.105-0.458l0.035-0.035v-0.035v-0.035l0.035-0.176l0,0v-0.035l0.035-0.071v-0.035v-0.035v-0.035l0.035-0.035v-0.035v-0.035    v-0.104l0,0l0.035-0.072v-0.07v-0.035l0,0l0.035-0.035v-0.07v-0.035v-0.035v-0.035v-0.035l0.035-0.071v-0.07v-0.035l0,0v-0.035    v-0.07l0.035-0.035v-0.035l0,0v-0.071l0,0l0.035-0.176v-0.035v-0.07v-0.035v-0.035v-0.035l0,0v-0.037v-0.035l0.035-0.07l0,0    v-0.034v-0.035v-0.07v-0.035v-0.035v-0.035v-0.036v-0.035v-0.07l0.035-0.035v-0.035v-0.07v-0.035v-0.07l0,0v-0.037v-0.035v-0.07    v-0.035v-0.035v-0.035v-0.034v-0.035v-0.07v-0.035l0,0v-0.071v-0.035v-0.035v-0.07l0,0v-0.035v-0.07v-0.035v-0.072    c0-4.441-1.797-8.459-4.685-11.385c-2.927-2.891-6.945-4.724-11.423-4.724H68.44h-0.07H68.3l-0.105,0.036h-0.035h-0.105h-0.07    h-0.07H67.77l0,0h-0.14h-0.07h-0.07l-0.14,0.035l0,0h-0.141h-0.07h-0.07l-0.109,0.035h-0.035h-0.105h-0.07l-0.07,0.035h-0.14l0,0    l-0.141,0.035h-0.07h-0.07l-0.109,0.035h-0.035h-0.105l-0.07,0.035h-0.07l-0.141,0.035l0,0h-0.14l-0.035,0.035h-0.07l-0.144,0.035    l0,0l-0.14,0.035h-0.035h-0.105l-0.105,0.035l0,0l-0.141,0.037l-0.035,0.035h-0.105l-0.109,0.035l0,0l-0.14,0.035h-0.035    l-0.105,0.035l-0.105,0.035l0,0l-0.14,0.035H64l-0.07,0.034l-0.144,0.035l0,0l-0.141,0.035l-0.035,0.035h-0.07l-0.105,0.037    l-0.035,0.035l-0.105,0.034h-0.07l-0.07,0.035l-0.105,0.035l0,0l-0.144,0.07h-0.035l-0.07,0.035l-0.105,0.035H62.66l-0.105,0.07    l-0.246,0.072l0,0l-0.25,0.105l-0.105,0.07l0,0l-0.141,0.07h-0.035l-0.07,0.035l-0.105,0.035v0.034l-0.141,0.037l-0.035,0.035    l-0.074,0.035l-0.211,0.104l-0.07,0.035l-0.07,0.035l-0.105,0.07l0,0l-0.105,0.072h-0.07l-0.144,0.105l0,0l-0.14,0.07    l-0.035,0.035l-0.07,0.035l-0.456,0.282l-0.109,0.07h-0.035l-0.07,0.069l-0.562,0.389l-0.105,0.07l-0.039,0.035l-0.07,0.071    l-0.105,0.035v0.035l-0.105,0.07l-0.035,0.035l-0.07,0.07l-0.105,0.069l-0.105,0.107h-0.035l-0.07,0.07l-0.109,0.07l-0.105,0.105    l0,0l-0.105,0.107h-0.035l-0.07,0.07l-0.07,0.069l-0.035,0.035l-0.105,0.07v0.035l-0.07,0.07l-0.07,0.035l-0.035,0.036    l-0.109,0.105l0,0l-0.105,0.105l-0.035,0.035l-0.035,0.035l-0.105,0.107l-0.105,0.105l-0.035,0.035l-0.035,0.069l-0.07,0.07    h-0.035l-0.07,0.105l-0.035,0.036l-0.07,0.07l-0.074,0.07v0.035l-0.105,0.105l0,0l-0.07,0.107l-0.07,0.035l-0.035,0.035    l-0.07,0.105l0,0l-0.105,0.105l-0.035,0.069l-0.035,0.035l-0.07,0.106h-0.035l-0.07,0.105l-0.035,0.035l-0.039,0.07l-0.07,0.107    h-0.035l-0.07,0.105v0.035l-0.07,0.105l-0.035,0.07l-0.035,0.035l-0.07,0.106h-0.035l-0.07,0.105l-0.035,0.069l-0.035,0.035    l-0.07,0.105l-0.07,0.107l-0.035,0.07l-0.035,0.07l-0.074,0.105l0,0l-0.07,0.106l-0.035,0.035l-0.035,0.07l-0.141,0.245v0.037    l-0.07,0.07L54.518,296.324z M49.478,287.864c0.457-0.493,0.881-0.985,1.337-1.446c2.327-2.324,5.078-4.193,8.142-5.462    l0.144-0.07h0.07l0.386-0.142l0.14-0.07l0.035-0.035l0.53-0.176l0.07-0.037l0.39-0.105l0.14-0.07h0.035l0.211-0.069h0.035    l0.141-0.07l0.425-0.106h0.035l0.14-0.07l0.14-0.035h0.07l0.214-0.07h0.035l0.14-0.035l0.141-0.035l0.07-0.035l0.211-0.035h0.035    l0.179-0.035l0.105-0.037l0.07-0.035l0.211-0.035h0.035l0.176-0.035l0.144-0.035h0.07l0.211-0.035h0.035l0.176-0.035l0.105-0.035    h0.105l0.214-0.035l0,0l0.176-0.034l0.14-0.035h0.07l0.21-0.035h0.035l0.179-0.037h0.14h0.07l0.21-0.035h0.035h0.179l0.14-0.035    h0.07h0.21l0.035-0.034h0.175h0.141h0.109l0.21-0.035l0,0h0.21h0.105h0.105h0.214l0,0h0.21l0.105-0.035h0.105h0.211    c6.945,0,13.22,2.819,17.769,7.365c4.58,4.584,7.366,10.857,7.366,17.766v0.107v0.07v0.07v0.07v0.035v0.034v0.072v0.07v0.069v0.07    v0.035v0.07v0.072v0.07v0.07l0,0v0.07v0.07v0.07l-0.035,0.177v0.07v0.069v0.07v0.037v0.035v0.07v0.07l-0.035,0.105v0.035v0.035    v0.072l-0.07,0.811v0.035l-0.109,0.633l0,0v0.07v0.072l-0.035,0.07l-0.175,1.091c7.156,2.397,14.841,4.583,22.983,6.663    c10.29-16.566,22.805-34.051,37.187-51.852c-14.382-17.835-26.897-35.319-37.187-51.852c-6.734,1.692-13.15,3.49-19.211,5.43    c-39.057,12.336-63.238,28.797-63.238,46.422c0,4.406,1.551,8.742,4.513,13.006C40.981,280.568,44.754,284.27,49.478,287.864z     M272.777,246.975c-4.3-4.264-10.22-6.908-16.779-6.908c-6.556,0-12.476,2.645-16.775,6.943    c-4.302,4.302-6.945,10.224-6.945,16.779c0,6.557,2.643,12.479,6.911,16.744c4.299,4.299,10.254,6.979,16.81,6.979    c6.524,0,12.479-2.68,16.779-6.979c4.268-4.266,6.945-10.223,6.945-16.744C279.723,257.233,277.045,251.276,272.777,246.975z     M255.998,231.044c9.026,0,17.203,3.665,23.124,9.588c5.924,5.921,9.623,14.1,9.623,23.157c0,9.025-3.699,17.237-9.588,23.159    c-5.921,5.921-14.133,9.589-23.159,9.589c-9.022,0-17.2-3.668-23.155-9.589c-5.924-5.957-9.588-14.134-9.588-23.159    c0-9.058,3.664-17.236,9.588-23.157C238.763,234.709,246.94,231.044,255.998,231.044z M255.998,187.545    c5.818,0,11.599,0.037,17.309,0.178c-5.78-5.146-11.56-10.081-17.309-14.84c-5.745,4.759-11.525,9.693-17.305,14.84    C244.403,187.617,250.148,187.545,255.998,187.545z" style="fill-rule:evenodd;clip-rule:evenodd;"/></g></g><g id="Layer_1"/></svg>