<?xml version="1.0" ?><!DOCTYPE svg  PUBLIC '-//W3C//DTD SVG 1.1//EN'  'http://www.w3.org/Graphics/SVG/1.1/DTD/svg11.dtd'><svg enable-background="new 0 0 24 24" height="24px" id="Layer_1" version="1.1" viewBox="0 0 24 24" width="24px" xml:space="preserve" xmlns="http://www.w3.org/2000/svg" xmlns:xlink="http://www.w3.org/1999/xlink"><g><path d="M12,16.7c-1.3,0-2.3-1-2.3-2.3h1c0,0.7,0.6,1.3,1.3,1.3V16.7z"/><path d="M12,0.4C5.6,0.4,0.4,5.6,0.4,12S5.6,23.6,12,23.6c6.4,0,11.6-5.2,11.6-11.6S18.4,0.4,12,0.4z M12,19.1   c-2.5,0-4.6-2.1-4.6-4.6c0-0.6,0.1-1.2,0.3-1.7c0,0,0-0.1,0-0.1c0.1-0.2,0.2-0.3,0.2-0.5l3.6-7.1C11.6,5,11.8,4.9,12,4.9   c0.2,0,0.4,0.1,0.4,0.3l3.6,7.2c0.1,0.1,0.2,0.3,0.2,0.5c0.2,0.6,0.4,1.2,0.4,1.8C16.6,17.1,14.5,19.1,12,19.1z"/></g></svg>